<svg width="295" height="58" viewBox="0 0 295 58" fill="none" xmlns="http://www.w3.org/2000/svg">
<rect width="58" height="58" rx="29" fill="white"/>
<path d="M38.6875 29C38.6875 23.6484 34.3516 19.3125 29 19.3125C23.6484 19.3125 19.3125 23.6484 19.3125 29C19.3125 33.8352 22.8551 37.843 27.4863 38.5703V31.8004H25.0254V29H27.4863V26.8656C27.4863 24.4379 28.9316 23.0969 31.1453 23.0969C32.2055 23.0969 33.3141 23.2859 33.3141 23.2859V25.6687H32.0922C30.8891 25.6687 30.5137 26.4156 30.5137 27.1816V29H33.2004L32.7707 31.8004H30.5137V38.5703C35.1449 37.843 38.6875 33.8352 38.6875 29Z" fill="#021421"/>
<rect x="78" width="58" height="58" rx="29" fill="white"/>
<path d="M107.004 24.5078C104.52 24.5078 102.516 26.5117 102.516 28.9961C102.516 31.4805 104.52 33.4844 107.004 33.4844C109.488 33.4844 111.492 31.4805 111.492 28.9961C111.492 26.5117 109.488 24.5078 107.004 24.5078ZM107.004 31.9141C105.398 31.9141 104.086 30.6055 104.086 28.9961C104.086 27.3867 105.395 26.0781 107.004 26.0781C108.613 26.0781 109.922 27.3867 109.922 28.9961C109.922 30.6055 108.609 31.9141 107.004 31.9141ZM112.723 24.3242C112.723 24.9062 112.254 25.3711 111.676 25.3711C111.094 25.3711 110.629 24.9023 110.629 24.3242C110.629 23.7461 111.098 23.2773 111.676 23.2773C112.254 23.2773 112.723 23.7461 112.723 24.3242ZM115.695 25.3867C115.629 23.9844 115.309 22.7422 114.281 21.7187C113.258 20.6953 112.016 20.375 110.613 20.3047C109.168 20.2227 104.836 20.2227 103.391 20.3047C101.992 20.3711 100.75 20.6914 99.7227 21.7148C98.6953 22.7383 98.3789 23.9805 98.3086 25.3828C98.2266 26.8281 98.2266 31.1602 98.3086 32.6055C98.375 34.0078 98.6953 35.25 99.7227 36.2734C100.75 37.2969 101.988 37.6172 103.391 37.6875C104.836 37.7695 109.168 37.7695 110.613 37.6875C112.016 37.6211 113.258 37.3008 114.281 36.2734C115.305 35.25 115.625 34.0078 115.695 32.6055C115.777 31.1602 115.777 26.832 115.695 25.3867ZM113.828 34.1562C113.523 34.9219 112.934 35.5117 112.164 35.8203C111.012 36.2773 108.277 36.1719 107.004 36.1719C105.73 36.1719 102.992 36.2734 101.844 35.8203C101.078 35.5156 100.488 34.9258 100.18 34.1562C99.7227 33.0039 99.8281 30.2695 99.8281 28.9961C99.8281 27.7227 99.7266 24.9844 100.18 23.8359C100.484 23.0703 101.074 22.4805 101.844 22.1719C102.996 21.7148 105.73 21.8203 107.004 21.8203C108.277 21.8203 111.016 21.7187 112.164 22.1719C112.93 22.4766 113.52 23.0664 113.828 23.8359C114.285 24.9883 114.18 27.7227 114.18 28.9961C114.18 30.2695 114.285 33.0078 113.828 34.1562Z" fill="#021421"/>
</svg>
